# xmcd CD database file
#
# Track frame offsets:
#	150
#	46166
#	60322
#	79106
#	95787
#	114097
#	129983
#	147110
#	166124
#	184342
#	200711
#	221852
#	237057
#	257121
#	275235
#	289412
#	303576
#
# Disc length: 4234 seconds
#
# Revision: 0
# Processed by: cddbd v1.5.1PL0 Copyright (c) Steve Scherf et al.
# Submitted via: CDex 1.51
#
DISCID=00108811
DTITLE=SCORE - コスって詰め合わせディスク
DYEAR=2005
DGENRE=Game
TTITLE0=Data Track
TTITLE1=コスッて My Heart!
TTITLE2=静かなひととき
TTITLE3=平和な日常
TTITLE4=つながり
TTITLE5=ドタバタ
TTITLE6=緊迫
TTITLE7=アヤシゲ
TTITLE8=一つに、重ねて
TTITLE9=求められて
TTITLE10=強制
TTITLE11=元気なエイリアン
TTITLE12=控えめな幼なじみ
TTITLE13=スタート
TTITLE14=優しいお母さん
TTITLE15=コスッて My Heart! (Instrumental)
TTITLE16=コスッて My Heart! (Karaoke)
EXTD=YEAR: 2005
EXTT0=
EXTT1=
EXTT2=
EXTT3=
EXTT4=
EXTT5=
EXTT6=
EXTT7=
EXTT8=
EXTT9=
EXTT10=
EXTT11=
EXTT12=
EXTT13=
EXTT14=
EXTT15=
EXTT16=
PLAYORDER=
